<mxfile host="app.diagrams.net" agent="Mozilla/5.0 (Windows NT 10.0; Win64; x64) AppleWebKit/537.36 (KHTML, like Gecko) Chrome/130.0.0.0 Safari/537.36" version="25.0.3">
  <diagram name="Page-1" id="mVT4H3KXt1Nj9wuAz6ms">
    <mxGraphModel dx="1195" dy="646" grid="1" gridSize="10" guides="1" tooltips="1" connect="1" arrows="1" fold="1" page="1" pageScale="1" pageWidth="850" pageHeight="1100" math="0" shadow="0">
      <root>
        <mxCell id="0" />
        <mxCell id="1" parent="0" />
        <mxCell id="3wb7D1Rx0moiI8og2Qdd-10" style="rounded=0;orthogonalLoop=1;jettySize=auto;html=1;entryX=0;entryY=0.5;entryDx=0;entryDy=0;" edge="1" parent="1" source="3wb7D1Rx0moiI8og2Qdd-1" target="3wb7D1Rx0moiI8og2Qdd-3">
          <mxGeometry relative="1" as="geometry" />
        </mxCell>
        <mxCell id="3wb7D1Rx0moiI8og2Qdd-11" style="rounded=0;orthogonalLoop=1;jettySize=auto;html=1;entryX=0;entryY=0.5;entryDx=0;entryDy=0;" edge="1" parent="1" source="3wb7D1Rx0moiI8og2Qdd-1" target="3wb7D1Rx0moiI8og2Qdd-4">
          <mxGeometry relative="1" as="geometry" />
        </mxCell>
        <mxCell id="3wb7D1Rx0moiI8og2Qdd-12" style="rounded=0;orthogonalLoop=1;jettySize=auto;html=1;entryX=0;entryY=0.5;entryDx=0;entryDy=0;" edge="1" parent="1" source="3wb7D1Rx0moiI8og2Qdd-1" target="3wb7D1Rx0moiI8og2Qdd-5">
          <mxGeometry relative="1" as="geometry" />
        </mxCell>
        <mxCell id="3wb7D1Rx0moiI8og2Qdd-13" style="rounded=0;orthogonalLoop=1;jettySize=auto;html=1;entryX=0;entryY=0.5;entryDx=0;entryDy=0;" edge="1" parent="1" source="3wb7D1Rx0moiI8og2Qdd-1" target="3wb7D1Rx0moiI8og2Qdd-6">
          <mxGeometry relative="1" as="geometry" />
        </mxCell>
        <mxCell id="3wb7D1Rx0moiI8og2Qdd-1" value="Sales Manager" style="shape=umlActor;verticalLabelPosition=bottom;verticalAlign=top;html=1;outlineConnect=0;" vertex="1" parent="1">
          <mxGeometry x="30" y="250" width="30" height="60" as="geometry" />
        </mxCell>
        <mxCell id="3wb7D1Rx0moiI8og2Qdd-3" value="View items list and stock level" style="ellipse;whiteSpace=wrap;html=1;" vertex="1" parent="1">
          <mxGeometry x="210" y="100" width="120" height="80" as="geometry" />
        </mxCell>
        <mxCell id="3wb7D1Rx0moiI8og2Qdd-4" value="Create daily item-wise sales entries" style="ellipse;whiteSpace=wrap;html=1;" vertex="1" parent="1">
          <mxGeometry x="210" y="190" width="120" height="80" as="geometry" />
        </mxCell>
        <mxCell id="3wb7D1Rx0moiI8og2Qdd-5" value="Create item requisition" style="ellipse;whiteSpace=wrap;html=1;" vertex="1" parent="1">
          <mxGeometry x="210" y="280" width="120" height="80" as="geometry" />
        </mxCell>
        <mxCell id="3wb7D1Rx0moiI8og2Qdd-6" value="View purchase orders" style="ellipse;whiteSpace=wrap;html=1;" vertex="1" parent="1">
          <mxGeometry x="210" y="370" width="120" height="80" as="geometry" />
        </mxCell>
      </root>
    </mxGraphModel>
  </diagram>
</mxfile>
